<?xml version="1.0" encoding="UTF-8"?>
<!--Generator: Apple Native CoreSVG 326-->
<!DOCTYPE svg
PUBLIC "-//W3C//DTD SVG 1.1//EN"
       "http://www.w3.org/Graphics/SVG/1.1/DTD/svg11.dtd">
<svg version="1.1" xmlns="http://www.w3.org/2000/svg" xmlns:xlink="http://www.w3.org/1999/xlink" viewBox="0 0 473.633 508.789">
 <g>
  <rect height="508.789" opacity="0" width="473.633" x="0" y="0"/>
  <path d="M473.633 352.344C473.633 258.398 409.766 194.141 300.195 194.141L115.234 194.141L41.7969 197.07L45.5078 206.641L106.25 152.93L183.398 77.3438C186.719 74.0234 188.477 69.7266 188.477 64.0625C188.477 53.3203 181.055 45.3125 169.727 45.3125C165.039 45.3125 159.57 47.6562 155.859 51.3672L6.25 199.023C1.95312 203.125 0 207.812 0 213.086C0 218.555 1.95312 223.242 6.25 227.344L155.859 375C159.57 378.711 165.039 381.055 169.727 381.055C181.055 381.055 188.477 373.047 188.477 362.109C188.477 356.641 186.719 352.344 183.398 349.023L106.25 273.438L45.5078 219.727L41.7969 229.297L115.234 232.227L302.93 232.227C388.281 232.227 435.742 280.469 435.742 350.391C435.742 420.312 388.281 470.898 302.93 470.898L237.891 470.898C226.172 470.898 218.555 479.492 218.555 489.844C218.555 500.391 226.367 508.789 238.086 508.789L303.32 508.789C411.133 508.789 473.633 446.289 473.633 352.344Z" fill="white" fill-opacity="0.85"/>
 </g>
</svg>
