<?xml version="1.0" encoding="UTF-8"?>
<!--Generator: Apple Native CoreSVG 326-->
<!DOCTYPE svg
PUBLIC "-//W3C//DTD SVG 1.1//EN"
       "http://www.w3.org/Graphics/SVG/1.1/DTD/svg11.dtd">
<svg version="1.1" xmlns="http://www.w3.org/2000/svg" xmlns:xlink="http://www.w3.org/1999/xlink" viewBox="0 0 473.633 508.789">
 <g>
  <rect height="508.789" opacity="0" width="473.633" x="0" y="0"/>
  <path d="M0 352.344C0 446.289 62.6953 508.789 170.312 508.789L235.742 508.789C247.266 508.789 255.078 500.391 255.078 489.844C255.078 479.492 247.461 470.898 235.742 470.898L170.703 470.898C85.3516 470.898 37.8906 420.312 37.8906 350.391C37.8906 280.469 85.3516 232.227 170.703 232.227L358.398 232.227L431.836 229.297L428.125 219.727L367.383 273.438L290.234 349.023C286.914 352.344 285.156 356.641 285.156 362.109C285.156 373.047 292.578 381.055 304.102 381.055C308.789 381.055 314.062 378.711 317.773 375L467.383 227.344C471.68 223.242 473.633 218.555 473.633 213.086C473.633 207.812 471.68 203.125 467.383 199.023L317.773 51.3672C314.062 47.6562 308.789 45.3125 304.102 45.3125C292.578 45.3125 285.156 53.3203 285.156 64.0625C285.156 69.7266 286.914 74.0234 290.234 77.3438L367.383 152.93L428.125 206.641L431.836 197.07L358.398 194.141L173.633 194.141C64.0625 194.141 0 258.398 0 352.344Z" fill="white" fill-opacity="0.85"/>
 </g>
</svg>
