<?xml version="1.0" encoding="UTF-8"?>


<svg version="1.1" xmlns="http://www.w3.org/2000/svg" xmlns:xlink="http://www.w3.org/1999/xlink" viewBox="0 0 471.094 515.43">
 <g>
  <rect height="515.43" opacity="0" width="471.094" x="0" y="0"></rect>
  <path d="M0 400.586C0 416.602 12.3047 427.344 32.4219 427.344L147.07 427.344C148.828 475 184.961 515.039 235.547 515.039C286.133 515.039 322.266 475.195 324.023 427.344L438.477 427.344C458.789 427.344 471.094 416.602 471.094 400.586C471.094 375.391 446.094 352.93 424.805 330.664C405.664 310.156 402.734 268.359 399.414 232.617C396.094 141.602 370.508 80.6641 305.469 58.5938C297.656 25.1953 271.289 0 235.547 0C199.805 0 173.242 25.1953 165.625 58.5938C100.586 80.6641 75 141.602 71.6797 232.617C68.3594 268.359 65.4297 310.156 46.2891 330.664C24.8047 352.93 0 375.391 0 400.586ZM41.6016 394.727L41.6016 391.797C45.1172 382.617 61.3281 366.016 75.3906 350.586C96.4844 327.539 102.148 287.305 105.859 235.742C109.766 136.133 140.039 100.391 183.594 88.4766C190.625 86.7188 194.531 83.3984 194.922 76.7578C196.484 50.5859 211.523 31.8359 235.547 31.8359C259.57 31.8359 274.609 50.5859 275.977 76.7578C276.562 83.3984 280.469 86.7188 287.5 88.4766C331.055 100.391 361.328 136.133 365.234 235.742C368.945 287.305 374.609 327.539 395.703 350.586C409.766 366.016 425.977 382.617 429.492 391.797L429.492 394.727ZM180.664 427.344L290.43 427.344C288.477 462.305 266.406 484.766 235.547 484.766C204.688 484.766 182.617 462.305 180.664 427.344Z" fill="white" fill-opacity="0.85"></path>
 </g>
</svg>