<?xml version="1.0" encoding="UTF-8"?>


<svg version="1.1" xmlns="http://www.w3.org/2000/svg" xmlns:xlink="http://www.w3.org/1999/xlink" viewBox="0 0 419.336 538.477">
 <g>
  <rect height="538.477" opacity="0" width="419.336" x="0" y="0"></rect>
  <path d="M74.0234 538.477L402.148 538.477C411.719 538.477 419.336 530.859 419.336 521.094C419.336 513.867 414.258 507.227 407.617 504.688C374.414 489.453 367.188 447.656 399.023 414.648C408.789 404.688 419.336 391.406 419.336 366.992L419.336 76.3672C419.336 25.9766 394.141 0.390625 344.141 0.390625L75.1953 0.390625C25.1953 0.390625 0 25.7812 0 76.3672L0 464.648C0 513.281 25.3906 538.477 74.0234 538.477ZM75.7812 503.906C49.2188 503.906 34.5703 489.453 34.5703 464.258C34.5703 440.43 51.1719 425.391 77.5391 425.391L339.844 425.391C344.727 425.391 348.828 424.805 352.734 423.828C338.867 451.953 341.797 481.641 358.984 503.906ZM67.5781 389.648C60.7422 389.648 54.8828 383.984 54.8828 376.953L54.8828 49.8047C54.8828 42.5781 60.7422 36.9141 67.5781 36.9141C74.6094 36.9141 80.4688 42.5781 80.4688 49.8047L80.4688 376.953C80.4688 383.984 74.6094 389.648 67.5781 389.648ZM165.039 311.719C155.859 311.719 150 306.25 150 298.047C150 294.922 150.391 292.188 152.148 287.891L218.555 110.156C222.461 99.8047 229.688 94.5312 240.43 94.5312C251.367 94.5312 258.789 99.8047 262.695 110.156L329.102 287.891C330.859 292.188 331.25 294.922 331.25 298.242C331.25 306.25 325.391 311.719 316.406 311.719C308.984 311.719 304.102 308.398 300.781 299.023L282.617 247.266L198.633 247.266L180.273 299.023C177.148 308.594 172.266 311.719 165.039 311.719ZM206.836 222.656L274.414 222.656L241.602 129.883L239.648 129.883Z" fill="white" fill-opacity="0.85"></path>
 </g>
</svg>