<?xml version="1.0" encoding="UTF-8"?>


<svg version="1.1" xmlns="http://www.w3.org/2000/svg" xmlns:xlink="http://www.w3.org/1999/xlink" viewBox="0 0 304.688 426.367">
 <g>
  <rect height="426.367" opacity="0" width="304.688" x="0" y="0"></rect>
  <path d="M304.688 213.086C304.688 207.422 302.539 202.734 298.438 198.828L97.6562 5.66406C93.9453 1.95312 89.2578 0 83.7891 0C72.8516 0 64.2578 8.20312 64.2578 19.3359C64.2578 24.6094 66.4062 29.4922 69.9219 33.0078L257.031 213.086L69.9219 392.969C66.4062 396.484 64.2578 401.172 64.2578 406.641C64.2578 417.773 72.8516 426.172 83.7891 426.172C89.2578 426.172 93.9453 424.023 97.6562 420.508L298.438 227.344C302.539 223.242 304.688 218.555 304.688 213.086Z" fill="white" fill-opacity="0.85"></path>
 </g>
</svg>