<?xml version="1.0" encoding="UTF-8"?>


<svg version="1.1" xmlns="http://www.w3.org/2000/svg" xmlns:xlink="http://www.w3.org/1999/xlink" viewBox="0 0 304.688 426.367">
 <g>
  <rect height="426.367" opacity="0" width="304.688" x="0" y="0"></rect>
  <path d="M0 213.086C0 218.555 2.14844 223.242 6.25 227.344L207.031 420.508C210.742 424.023 215.43 426.172 220.898 426.172C231.836 426.172 240.43 417.773 240.43 406.641C240.43 401.172 238.281 396.484 234.766 392.969L47.6562 213.086L234.766 33.0078C238.281 29.4922 240.43 24.6094 240.43 19.3359C240.43 8.20312 231.836 0 220.898 0C215.43 0 210.742 1.95312 207.031 5.66406L6.25 198.828C2.14844 202.734 0 207.422 0 213.086Z" fill="white" fill-opacity="0.85"></path>
 </g>
</svg>