<?xml version="1.0" encoding="UTF-8"?>


<svg version="1.1" xmlns="http://www.w3.org/2000/svg" xmlns:xlink="http://www.w3.org/1999/xlink" viewBox="0 0 426.562 259.18">
 <g>
  <rect height="259.18" opacity="0" width="426.562" x="0" y="0"></rect>
  <path d="M213.281 259.18C218.945 259.18 224.219 256.641 228.125 252.344L420.703 51.7578C424.414 48.0469 426.562 43.3594 426.562 37.8906C426.562 26.9531 418.164 18.5547 407.031 18.5547C401.953 18.5547 396.875 20.5078 393.164 24.0234L201.367 223.633L225.391 223.633L33.2031 24.0234C29.6875 20.5078 24.8047 18.5547 19.5312 18.5547C8.39844 18.5547 0 26.9531 0 37.8906C0 43.3594 2.34375 48.0469 5.85938 51.9531L198.438 252.539C202.734 256.641 207.617 259.18 213.281 259.18Z" fill="white" fill-opacity="0.85"></path>
 </g>
</svg>