<?xml version="1.0" encoding="UTF-8"?>


<svg version="1.1" xmlns="http://www.w3.org/2000/svg" xmlns:xlink="http://www.w3.org/1999/xlink" viewBox="0 0 456.055 91.6016">
 <g>
  <rect height="91.6016" opacity="0" width="456.055" x="0" y="0"></rect>
  <path d="M410.352 91.2109C435.547 91.2109 456.055 70.8984 456.055 45.7031C456.055 20.3125 435.547 0 410.352 0C385.156 0 364.648 20.3125 364.648 45.7031C364.648 70.8984 385.156 91.2109 410.352 91.2109Z" fill="white" fill-opacity="0.85"></path>
  <path d="M227.93 91.2109C253.32 91.2109 273.633 70.8984 273.633 45.7031C273.633 20.3125 253.32 0 227.93 0C202.734 0 182.422 20.3125 182.422 45.7031C182.422 70.8984 202.734 91.2109 227.93 91.2109Z" fill="white" fill-opacity="0.85"></path>
  <path d="M45.7031 91.2109C70.8984 91.2109 91.4062 70.8984 91.4062 45.7031C91.4062 20.3125 70.8984 0 45.7031 0C20.3125 0 0 20.3125 0 45.7031C0 70.8984 20.3125 91.2109 45.7031 91.2109Z" fill="white" fill-opacity="0.85"></path>
 </g>
</svg>