<?xml version="1.0" encoding="UTF-8"?>
<!--Generator: Apple Native CoreSVG 326-->
<!DOCTYPE svg
PUBLIC "-//W3C//DTD SVG 1.1//EN"
       "http://www.w3.org/Graphics/SVG/1.1/DTD/svg11.dtd">
<svg version="1.1" xmlns="http://www.w3.org/2000/svg" xmlns:xlink="http://www.w3.org/1999/xlink" viewBox="0 0 508.789 509.18">
 <g>
  <rect height="509.18" opacity="0" width="508.789" x="0" y="0"/>
  <path d="M254.297 508.789C394.727 508.789 508.789 394.922 508.789 254.492C508.789 114.062 394.727 0 254.297 0C113.867 0 0 114.062 0 254.492C0 394.922 113.867 508.789 254.297 508.789ZM254.297 472.461C133.789 472.461 36.3281 375 36.3281 254.492C36.3281 133.984 133.789 36.5234 254.297 36.5234C374.805 36.5234 472.266 133.984 472.266 254.492C472.266 375 374.805 472.461 254.297 472.461Z" fill="white" fill-opacity="0.85"/>
  <path d="M370.898 289.062C390.039 289.062 405.664 273.438 405.664 254.102C405.664 234.961 390.039 219.336 370.898 219.336C351.562 219.336 335.938 234.961 335.938 254.102C335.938 273.438 351.562 289.062 370.898 289.062Z" fill="white" fill-opacity="0.85"/>
  <path d="M254.102 289.062C273.438 289.062 289.062 273.438 289.062 254.102C289.062 234.961 273.438 219.336 254.102 219.336C234.961 219.336 219.336 234.961 219.336 254.102C219.336 273.438 234.961 289.062 254.102 289.062Z" fill="white" fill-opacity="0.85"/>
  <path d="M137.5 289.062C156.641 289.062 172.266 273.438 172.266 254.102C172.266 234.961 156.445 219.336 137.5 219.336C118.164 219.336 102.539 234.961 102.539 254.102C102.539 273.438 118.164 289.062 137.5 289.062Z" fill="white" fill-opacity="0.85"/>
 </g>
</svg>
