<?xml version="1.0" encoding="UTF-8"?>


<svg version="1.1" xmlns="http://www.w3.org/2000/svg" xmlns:xlink="http://www.w3.org/1999/xlink" viewBox="0 0 567.383 458.789">
 <g>
  <rect height="458.789" opacity="0" width="567.383" x="0" y="0"></rect>
  <path d="M75.9766 456.055L497.266 456.055C541.992 456.055 567.383 430.469 567.383 380.859L567.383 121.68C567.383 71.875 541.797 46.4844 491.406 46.4844L248.242 46.4844C229.883 46.4844 219.922 42.5781 206.836 31.25L191.992 18.75C175.391 4.29688 163.477 0 138.281 0L66.6016 0C23.8281 0 0 23.6328 0 71.4844L0 380.859C0 430.664 25.5859 456.055 75.9766 456.055ZM76.7578 421.484C49.4141 421.484 34.5703 407.031 34.5703 378.906L34.5703 73.6328C34.5703 47.4609 48.0469 34.375 73.4375 34.375L129.688 34.375C147.656 34.375 157.422 38.2812 170.703 50L185.547 62.5C201.562 76.3672 214.453 81.0547 239.648 81.0547L490.82 81.0547C517.578 81.0547 532.812 95.5078 532.812 123.438L532.812 379.102C532.812 407.031 517.578 421.484 490.82 421.484ZM20.8984 173.633L546.68 173.633L546.68 141.016L20.8984 141.016Z" fill="white" fill-opacity="0.85"></path>
 </g>
</svg>