<?xml version="1.0" encoding="UTF-8"?>


<svg version="1.1" xmlns="http://www.w3.org/2000/svg" xmlns:xlink="http://www.w3.org/1999/xlink" viewBox="0 0 545.117 537.836">
 <g>
  <rect height="537.836" opacity="0" width="545.117" x="0" y="0"></rect>
  <path d="M272.461 505.734C278.906 505.734 285.352 505.539 291.797 504.953L304.883 529.563C308.203 535.813 313.086 538.156 319.922 537.18C326.758 536.008 330.273 531.906 331.25 525.07L335.352 497.531C347.852 494.016 359.766 489.523 371.484 484.25L391.992 502.805C397.07 507.688 402.93 507.883 408.789 504.758C414.844 501.438 416.992 496.164 415.43 489.328L409.57 461.984C420.117 454.758 429.883 446.359 439.062 437.57L464.844 447.922C471.484 450.461 476.758 448.898 481.445 443.82C485.938 438.742 486.133 433.078 482.422 427.023L467.578 403.391C474.805 392.844 481.25 381.906 486.719 370.383L514.453 371.359C521.484 371.555 526.172 368.43 528.516 361.789C531.055 355.539 529.492 350.07 524.023 345.773L501.758 328.781C505.078 316.477 507.422 303.977 508.594 290.891L534.961 282.297C541.797 280.148 545.117 275.656 545.117 268.82C545.117 261.984 541.797 257.297 534.961 255.148L508.594 246.75C507.422 233.664 505.078 220.969 501.758 208.664L523.828 191.672C529.492 187.375 530.664 182.102 528.711 175.461C526.172 168.82 521.289 166.086 514.453 166.281L486.719 167.063C481.25 155.539 474.805 144.406 467.578 133.859L482.227 110.422C486.133 104.563 485.352 98.8985 481.445 93.6251C476.758 88.1563 471.094 87.1797 465.039 89.5235L439.062 100.07C429.883 90.6954 419.922 82.6876 409.57 75.2657L415.43 48.3126C416.797 41.2813 414.648 36.2032 408.984 32.6876C402.734 29.3672 397.07 30.1485 392.188 34.6407L371.289 53.1954C359.766 47.7266 347.656 43.6251 335.156 40.1094L331.25 12.5704C330.273 5.53912 326.367 1.82818 319.922 0.265684C313.086-0.906191 308.008 1.82818 304.883 7.88287L291.602 32.4922C285.352 32.1016 278.906 31.711 272.461 31.711C266.016 31.711 259.766 32.1016 253.32 32.4922L240.234 7.88287C236.914 1.63287 231.836-0.515566 225.195 0.265684C218.359 1.43756 214.648 5.73443 213.672 12.3751L209.57 40.1094C197.07 43.6251 185.156 48.1172 173.438 53.3907L153.125 34.6407C147.852 29.9532 142.188 29.5626 136.133 32.6876C130.273 36.2032 128.125 41.4766 129.492 48.1172L135.352 75.6563C124.805 82.8829 115.039 91.086 106.055 100.07L80.2734 89.5235C73.8281 86.9844 68.1641 88.5469 63.6719 93.6251C59.1797 98.8985 58.9844 104.563 62.6953 110.422L77.5391 134.055C70.1172 144.602 63.8672 155.734 58.2031 167.258L30.6641 166.086C23.4375 165.891 18.75 169.211 16.4062 175.656C14.0625 182.102 15.8203 187.375 21.2891 191.672L43.3594 208.859C39.8438 221.164 37.6953 233.664 36.5234 246.75L9.96094 255.148C3.32031 257.297 0 261.984 0 268.82C0 275.656 3.32031 280.148 9.96094 282.297L36.5234 290.891C37.6953 303.977 39.8438 316.477 43.3594 328.781L21.2891 345.969C15.8203 350.266 14.4531 355.539 16.4062 361.984C18.9453 368.625 23.4375 371.359 30.4688 371.164L58.2031 370.383C63.8672 382.102 70.1172 393.039 77.5391 403.586L62.6953 427.023C58.9844 433.078 59.5703 438.742 63.6719 444.016C68.3594 449.289 73.8281 450.461 80.0781 447.922L106.055 437.375C115.039 446.555 125 454.758 135.352 462.18L129.688 489.328C128.32 496.359 130.469 501.438 136.133 504.953C142.383 508.273 147.852 507.688 152.93 503L173.828 484.25C185.352 489.719 197.266 494.016 209.766 497.531L213.672 525.07C214.648 531.906 218.555 535.813 225.195 537.18C232.031 538.352 236.914 535.813 240.234 529.758L253.32 504.953C259.766 505.539 266.016 505.734 272.461 505.734ZM272.461 470.188C161.328 470.188 71.0938 379.953 71.0938 268.82C71.0938 157.492 161.328 67.2579 272.461 67.2579C383.789 67.2579 474.023 157.492 474.023 268.82C474.023 379.953 383.789 470.188 272.461 470.188ZM231.836 230.539L257.812 214.523L172.852 68.6251L145.898 83.6641ZM326.367 283.273L495.508 283.273L495.508 253L326.367 253ZM258.789 323.508L233.203 307.102L144.141 453.195L170.703 468.82ZM272.852 331.32C307.422 331.32 335.352 303.391 335.352 268.82C335.352 234.25 307.422 206.125 272.852 206.125C238.281 206.125 210.156 234.25 210.156 268.82C210.156 303.391 238.281 331.32 272.852 331.32ZM272.852 298.898C256.055 298.898 242.773 285.422 242.773 268.82C242.773 252.219 256.055 238.742 272.852 238.742C289.453 238.742 302.93 252.219 302.93 268.82C302.93 285.422 289.453 298.898 272.852 298.898Z" fill="white" fill-opacity="0.85"></path>
 </g>
</svg>