<?xml version="1.0" encoding="UTF-8"?>


<svg version="1.1" xmlns="http://www.w3.org/2000/svg" xmlns:xlink="http://www.w3.org/1999/xlink" viewBox="0 0 333.008 598.242">
 <g>
  <rect height="598.242" opacity="0" width="333.008" x="0" y="0"></rect>
  <path d="M88.0859 508.984L244.922 508.984C252.539 508.984 258.398 502.93 258.398 495.312C258.398 487.695 252.539 481.641 244.922 481.641L88.0859 481.641C80.4688 481.641 74.6094 487.695 74.6094 495.312C74.6094 502.93 80.4688 508.984 88.0859 508.984ZM166.406 580.469C205.273 580.469 236.719 561.719 238.867 533.398L94.1406 533.398C95.8984 561.719 127.344 580.469 166.406 580.469Z" fill="white" fill-opacity="0.85"></path>
  <path d="M0 153.32C0 247.266 62.6953 272.461 73.2422 443.164C73.6328 451.953 78.7109 457.227 88.2812 457.227L244.727 457.227C254.297 457.227 259.375 451.953 259.766 443.164C270.312 272.461 333.008 247.266 333.008 153.32C333.008 68.3594 259.57 0 166.406 0C73.4375 0 0 68.3594 0 153.32Z" fill="white" fill-opacity="0.85"></path>
 </g>
</svg>