<?xml version="1.0" encoding="UTF-8"?>


<svg version="1.1" xmlns="http://www.w3.org/2000/svg" xmlns:xlink="http://www.w3.org/1999/xlink" viewBox="0 0 488.086 492.773">
 <g>
  <rect height="492.773" opacity="0" width="488.086" x="0" y="0"></rect>
  <path d="M0 197.656C0 306.445 88.6719 395.117 197.656 395.117C241.602 395.117 282.031 380.664 314.844 356.25L443.555 485.156C448.438 490.234 455.273 492.773 462.305 492.773C477.734 492.773 488.086 481.055 488.086 466.406C488.086 459.18 485.547 452.93 480.859 448.047L352.734 319.336C379.297 285.938 395.312 243.555 395.312 197.656C395.312 88.6719 306.641 0 197.656 0C88.6719 0 0 88.6719 0 197.656ZM36.5234 197.656C36.5234 108.789 108.789 36.5234 197.656 36.5234C286.523 36.5234 358.594 108.789 358.594 197.656C358.594 286.328 286.523 358.594 197.656 358.594C108.789 358.594 36.5234 286.328 36.5234 197.656Z" fill="white" fill-opacity="0.85"></path>
 </g>
</svg>