<?xml version="1.0" encoding="UTF-8"?>


<svg version="1.1" xmlns="http://www.w3.org/2000/svg" xmlns:xlink="http://www.w3.org/1999/xlink" viewBox="0 0 507.227 511.523">
 <g>
  <rect height="511.523" opacity="0" width="507.227" x="0" y="0"></rect>
  <path d="M14.8438 311.328L243.359 311.328C251.758 311.328 258.203 304.883 258.203 296.484C258.203 288.477 251.562 281.836 243.359 281.836L14.8438 281.836C6.64062 281.836 0 288.477 0 296.484C0 304.883 6.44531 311.328 14.8438 311.328Z" fill="white" fill-opacity="0.85"></path>
  <path d="M14.8438 222.852L243.359 222.852C251.758 222.852 258.203 216.211 258.203 208.008C258.203 200 251.562 193.555 243.359 193.555L14.8438 193.555C6.64062 193.555 0 200 0 208.008C0 216.211 6.44531 222.852 14.8438 222.852Z" fill="white" fill-opacity="0.85"></path>
  <path d="M14.8438 134.57L243.359 134.57C251.562 134.57 258.203 127.93 258.203 119.727C258.203 111.719 251.562 105.078 243.359 105.078L14.8438 105.078C6.64062 105.078 0 111.719 0 119.727C0 127.93 6.64062 134.57 14.8438 134.57Z" fill="white" fill-opacity="0.85"></path>
  <path d="M507.227 124.414L507.227 31.25C507.227 18.75 497.07 10.5469 484.961 13.0859L358.789 40.625C343.945 43.75 335.938 51.9531 335.938 65.0391L336.523 342.773C337.5 355.859 331.25 364.648 319.531 366.992L279.688 375.391C230.273 385.547 207.031 410.352 207.031 447.852C207.031 485.352 235.742 511.523 276.562 511.523C313.086 511.523 367.188 484.961 367.188 412.891L367.188 184.766C367.188 170.703 370.117 167.383 382.812 164.453L494.531 140.039C502.344 138.281 507.227 132.422 507.227 124.414Z" fill="white" fill-opacity="0.85"></path>
 </g>
</svg>