<?xml version="1.0" encoding="UTF-8"?>


<svg version="1.1" xmlns="http://www.w3.org/2000/svg" xmlns:xlink="http://www.w3.org/1999/xlink" viewBox="0 0 497.635 528.145">
 <g>
  <rect height="528.145" opacity="0" width="497.635" x="0" y="0"></rect>
  <path d="M254.482 509.873C266.396 509.873 275.575 500.694 275.575 488.975L275.575 301.28L351.552 230.967C380.654 235.459 411.708 223.155 439.638 195.225L302.333 57.725C274.208 85.6547 263.075 115.538 267.763 144.834L33.1926 397.569C23.8176 407.92 23.2317 421.006 35.3411 433.116L1.94264 475.303C-0.791739 478.623-0.791739 483.506 2.9192 487.413L10.3411 494.639C14.052 498.35 18.5442 498.545 22.4504 495.616L64.6379 461.827C75.9661 474.131 89.8333 473.35 99.7942 463.975L233.193 340.538L233.193 488.975C233.193 500.694 242.568 509.873 254.482 509.873ZM54.4817 416.319L279.482 177.061C283.974 185.264 289.638 193.077 296.474 200.889C303.31 208.311 311.122 214.561 318.74 218.858L81.2395 443.272ZM325.185 34.8735L462.49 172.373C507.607 127.452 509.365 72.5688 466.786 30.3813C424.794-11.4156 370.107-10.2437 325.185 34.8735Z" fill="white" fill-opacity="0.85"></path>
 </g>
</svg>