<?xml version="1.0" encoding="UTF-8"?>
<!--Generator: Apple Native CoreSVG 326-->
<!DOCTYPE svg
PUBLIC "-//W3C//DTD SVG 1.1//EN"
       "http://www.w3.org/Graphics/SVG/1.1/DTD/svg11.dtd">
<svg version="1.1" xmlns="http://www.w3.org/2000/svg" xmlns:xlink="http://www.w3.org/1999/xlink" viewBox="0 0 518.732 543.086">
 <g>
  <rect height="543.086" opacity="0" width="518.732" x="0" y="0"/>
  <path d="M265.225 526.719C280.752 526.719 292.764 514.707 292.96 499.375L293.643 317.735L367.081 249.375C397.159 252.207 428.116 239.512 454.092 213.047L305.557 64.4142C278.995 90.4885 266.885 120.86 269.913 151.133L36.2212 401.914C25.5767 413.438 25.3814 427.11 38.0767 442.246L3.21341 486.094C-1.57175 492.051-0.985812 500.547 4.87356 506.504L12.2954 513.828C18.2525 519.785 26.5533 520.469 33.0962 515.293L76.5533 480.235C91.2993 493.125 105.264 492.735 116.592 482.188L237.393 369.981L237.393 499.375C237.393 514.707 249.698 526.719 265.225 526.719ZM71.0845 423.985L287.002 197.715C291.006 204.258 295.987 210.606 301.651 216.758C307.413 222.813 313.76 227.988 319.913 232.09L94.7173 447.715ZM334.073 35.8986L482.608 184.629C528.213 139.903 532.12 78.8674 485.831 32.676C439.737-13.1248 378.799-9.60919 334.073 35.8986Z" fill="white" fill-opacity="0.85"/>
 </g>
</svg>
