<?xml version="1.0" encoding="UTF-8"?>


<svg version="1.1" xmlns="http://www.w3.org/2000/svg" xmlns:xlink="http://www.w3.org/1999/xlink" viewBox="0 0 296.68 411.133">
 <g>
  <rect height="411.133" opacity="0" width="296.68" x="0" y="0"></rect>
  <path d="M31.25 410.742L87.5 410.742C108.398 410.742 118.75 400.391 118.75 379.492L118.75 31.25C118.75 9.57031 108.398 0 87.5 0L31.25 0C10.3516 0 0 10.3516 0 31.25L0 379.492C0 400.391 10.3516 410.742 31.25 410.742ZM209.18 410.742L265.43 410.742C286.328 410.742 296.68 400.391 296.68 379.492L296.68 31.25C296.68 9.57031 286.328 0 265.43 0L209.18 0C188.281 0 177.93 10.3516 177.93 31.25L177.93 379.492C177.93 400.391 188.281 410.742 209.18 410.742Z" fill="white" fill-opacity="0.85"></path>
 </g>
</svg>