<?xml version="1.0" encoding="UTF-8"?>


<svg version="1.1" xmlns="http://www.w3.org/2000/svg" xmlns:xlink="http://www.w3.org/1999/xlink" viewBox="0 0 747.852 512.695">
 <g>
  <rect height="512.695" opacity="0" width="747.852" x="0" y="0"></rect>
  <path d="M327.246 326.803C285.925 362.598 262.695 408.336 262.695 449.219C262.695 460.954 265.166 472 270.814 481.445L73.0469 481.445C43.3594 481.445 31.0547 469.727 31.0547 447.266C31.0547 377.148 101.758 293.945 215.039 293.945C259.667 293.945 297.68 306.814 327.246 326.803ZM302.539 158.789C302.539 213.281 262.695 255.469 215.43 255.469C168.164 255.469 128.125 213.281 128.125 159.18C128.125 106.25 168.555 65.0391 215.43 65.0391C262.305 65.0391 302.539 105.469 302.539 158.789Z" fill="white" fill-opacity="0.85"></path>
  <path d="M505.469 249.805C559.961 249.805 605.664 201.367 605.664 138.867C605.664 77.7344 559.57 31.0547 505.469 31.0547C451.562 31.0547 405.469 78.5156 405.469 139.258C405.469 201.367 451.172 249.805 505.469 249.805ZM344.141 481.445L666.406 481.445C702.539 481.445 716.602 471.094 716.602 449.219C716.602 384.375 635.547 294.922 505.273 294.922C375 294.922 293.945 384.375 293.945 449.219C293.945 471.094 308.008 481.445 344.141 481.445Z" fill="white" fill-opacity="0.85"></path>
 </g>
</svg>