<?xml version="1.0" encoding="UTF-8"?>


<svg version="1.1" xmlns="http://www.w3.org/2000/svg" xmlns:xlink="http://www.w3.org/1999/xlink" viewBox="0 0 598.047 547.852">
 <g>
  <rect height="547.852" opacity="0" width="598.047" x="0" y="0"></rect>
  <path d="M591.602 490.234C591.602 498.047 585.156 504.492 577.344 504.492C569.727 504.492 563.281 498.047 563.281 490.234C563.281 482.617 569.727 476.172 577.344 476.172C585.156 476.172 591.602 482.617 591.602 490.234ZM34.7656 490.234C34.7656 498.047 28.3203 504.492 20.5078 504.492C12.8906 504.492 6.44531 498.047 6.44531 490.234C6.44531 482.617 12.8906 476.172 20.5078 476.172C28.3203 476.172 34.7656 482.617 34.7656 490.234ZM117.54 392.588C109.415 402.608 102.651 413.117 97.4568 423.84C87.4729 422.561 79.4922 413.772 79.4922 403.32C79.4922 392.188 88.8672 382.812 100 382.812C107.352 382.812 113.881 386.761 117.54 392.588ZM518.555 403.32C518.555 413.581 510.864 422.239 501.134 423.754C495.872 412.922 489.013 402.308 480.744 392.205C484.452 386.59 490.856 382.812 498.047 382.812C509.18 382.812 518.555 392.188 518.555 403.32ZM591.602 403.32C591.602 411.133 585.156 417.578 577.344 417.578C569.727 417.578 563.281 411.133 563.281 403.32C563.281 395.703 569.727 389.258 577.344 389.258C585.156 389.258 591.602 395.703 591.602 403.32ZM34.7656 403.32C34.7656 411.133 28.3203 417.578 20.5078 417.578C12.8906 417.578 6.44531 411.133 6.44531 403.32C6.44531 395.703 12.8906 389.258 20.5078 389.258C28.3203 389.258 34.7656 395.703 34.7656 403.32ZM127.148 316.602C127.148 331.25 114.844 343.555 100 343.555C85.1562 343.555 73.0469 331.25 73.0469 316.602C73.0469 301.758 85.1562 289.453 100 289.453C114.844 289.453 127.148 301.758 127.148 316.602ZM525 316.602C525 331.25 512.695 343.555 498.047 343.555C483.203 343.555 470.898 331.25 470.898 316.602C470.898 301.758 483.203 289.453 498.047 289.453C512.695 289.453 525 301.758 525 316.602ZM192.74 293.018C196.536 299.813 200.989 306.128 206.005 311.886C206.303 313.415 206.445 314.993 206.445 316.602C206.445 321.701 204.978 326.516 202.413 330.611C193.078 334.233 184.352 338.529 176.194 343.327C162.892 341.687 152.539 330.146 152.539 316.602C152.539 301.758 164.648 289.453 179.492 289.453C184.306 289.453 188.832 290.747 192.74 293.018ZM445.508 316.602C445.508 330.004 435.371 341.444 422.268 343.263C413.875 338.337 404.884 333.939 395.264 330.239C392.809 326.227 391.406 321.548 391.406 316.602C391.406 315.292 391.502 314.003 391.719 312.749C397.135 306.643 401.922 299.899 405.975 292.617C409.744 290.596 414.031 289.453 418.555 289.453C433.398 289.453 445.508 301.758 445.508 316.602ZM41.2109 316.602C41.2109 327.734 31.8359 337.109 20.5078 337.109C9.375 337.109 0 327.734 0 316.602C0 305.273 9.375 295.898 20.5078 295.898C31.8359 295.898 41.2109 305.273 41.2109 316.602ZM598.047 316.602C598.047 327.734 588.672 337.109 577.344 337.109C566.211 337.109 556.836 327.734 556.836 316.602C556.836 305.273 566.211 295.898 577.344 295.898C588.672 295.898 598.047 305.273 598.047 316.602ZM525 229.688C525 244.531 512.695 256.641 498.047 256.641C483.203 256.641 470.898 244.531 470.898 229.688C470.898 214.844 483.203 202.734 498.047 202.734C512.695 202.734 525 214.844 525 229.688ZM127.148 229.688C127.148 244.531 114.844 256.641 100 256.641C85.1562 256.641 73.0469 244.531 73.0469 229.688C73.0469 214.844 85.1562 202.734 100 202.734C114.844 202.734 127.148 214.844 127.148 229.688ZM173.828 223.242C173.828 234.774 175.231 245.96 178.003 256.565C163.842 255.817 152.539 244.029 152.539 229.688C152.539 216.225 162.5 205.012 175.437 203.074C174.325 209.58 173.828 216.334 173.828 223.242ZM445.508 229.688C445.508 243.863 434.465 255.544 420.536 256.54C423.368 245.772 424.805 234.398 424.805 222.656C424.805 215.979 424.344 209.457 423.305 203.181C435.902 205.415 445.508 216.467 445.508 229.688ZM598.047 229.688C598.047 241.016 588.672 250.195 577.344 250.195C566.211 250.195 556.836 241.016 556.836 229.688C556.836 218.359 566.211 209.18 577.344 209.18C588.672 209.18 598.047 218.359 598.047 229.688ZM41.2109 229.688C41.2109 241.016 31.8359 250.195 20.5078 250.195C9.375 250.195 0 241.016 0 229.688C0 218.359 9.375 209.18 20.5078 209.18C31.8359 209.18 41.2109 218.359 41.2109 229.688ZM518.555 142.773C518.555 154.102 509.18 163.477 498.047 163.477C486.719 163.477 477.344 154.102 477.344 142.773C477.344 131.641 486.719 122.266 498.047 122.266C509.18 122.266 518.555 131.641 518.555 142.773ZM439.062 142.773C439.062 154.102 429.688 163.477 418.555 163.477C415.733 163.477 413.033 162.895 410.569 161.845C407.048 154.538 402.802 147.735 397.917 141.519C398.566 130.942 407.657 122.266 418.555 122.266C429.688 122.266 439.062 131.641 439.062 142.773ZM200 142.773L199.991 142.947C195.634 148.605 191.824 154.753 188.583 161.292C185.852 162.696 182.762 163.477 179.492 163.477C168.164 163.477 158.984 154.102 158.984 142.773C158.984 131.641 168.164 122.266 179.492 122.266C190.82 122.266 200 131.641 200 142.773ZM120.703 142.773C120.703 154.102 111.328 163.477 100 163.477C88.8672 163.477 79.4922 154.102 79.4922 142.773C79.4922 131.641 88.8672 122.266 100 122.266C111.328 122.266 120.703 131.641 120.703 142.773ZM591.602 142.773C591.602 150.586 585.156 157.031 577.344 157.031C569.727 157.031 563.281 150.586 563.281 142.773C563.281 135.156 569.727 128.711 577.344 128.711C585.156 128.711 591.602 135.156 591.602 142.773ZM34.7656 142.773C34.7656 150.586 28.3203 157.031 20.5078 157.031C12.8906 157.031 6.44531 150.586 6.44531 142.773C6.44531 135.156 12.8906 128.711 20.5078 128.711C28.3203 128.711 34.7656 135.156 34.7656 142.773ZM359.375 56.0547C359.375 67.1875 350 76.5625 338.672 76.5625C327.539 76.5625 318.164 67.1875 318.164 56.0547C318.164 44.7266 327.539 35.3516 338.672 35.3516C350 35.3516 359.375 44.7266 359.375 56.0547ZM279.883 56.0547C279.883 67.1875 270.508 76.5625 259.18 76.5625C248.047 76.5625 238.672 67.1875 238.672 56.0547C238.672 44.7266 248.047 35.3516 259.18 35.3516C270.508 35.3516 279.883 44.7266 279.883 56.0547ZM591.602 56.0547C591.602 63.6719 585.156 70.1172 577.344 70.1172C569.727 70.1172 563.281 63.6719 563.281 56.0547C563.281 48.2422 569.727 41.7969 577.344 41.7969C585.156 41.7969 591.602 48.2422 591.602 56.0547ZM512.109 56.0547C512.109 63.6719 505.664 70.1172 498.047 70.1172C490.234 70.1172 483.789 63.6719 483.789 56.0547C483.789 48.2422 490.234 41.7969 498.047 41.7969C505.664 41.7969 512.109 48.2422 512.109 56.0547ZM432.617 56.0547C432.617 63.6719 426.172 70.1172 418.555 70.1172C410.742 70.1172 404.297 63.6719 404.297 56.0547C404.297 48.2422 410.742 41.7969 418.555 41.7969C426.172 41.7969 432.617 48.2422 432.617 56.0547ZM193.555 56.0547C193.555 63.6719 187.305 70.1172 179.492 70.1172C171.68 70.1172 165.43 63.6719 165.43 56.0547C165.43 48.2422 171.68 41.7969 179.492 41.7969C187.305 41.7969 193.555 48.2422 193.555 56.0547ZM114.258 56.0547C114.258 63.6719 107.812 70.1172 100 70.1172C92.3828 70.1172 85.9375 63.6719 85.9375 56.0547C85.9375 48.2422 92.3828 41.7969 100 41.7969C107.812 41.7969 114.258 48.2422 114.258 56.0547ZM34.7656 56.0547C34.7656 63.6719 28.3203 70.1172 20.5078 70.1172C12.8906 70.1172 6.44531 63.6719 6.44531 56.0547C6.44531 48.2422 12.8906 41.7969 20.5078 41.7969C28.3203 41.7969 34.7656 48.2422 34.7656 56.0547Z" fill="white" fill-opacity="0.425"></path>
  <path d="M299.219 318.555C345.312 318.555 386.133 276.367 386.133 222.656C386.133 168.945 345.312 129.883 299.219 129.883C253.32 129.883 212.5 169.922 212.5 223.242C212.5 276.367 253.32 318.555 299.219 318.555ZM170.312 509.18L428.32 509.18C465.625 509.18 476.758 498.633 476.758 479.883C476.758 425.586 408.984 350.391 299.219 350.391C189.648 350.391 121.68 425.586 121.68 479.883C121.68 498.633 133.008 509.18 170.312 509.18Z" fill="white" fill-opacity="0.85"></path>
 </g>
</svg>