<?xml version="1.0" encoding="UTF-8"?>


<svg version="1.1" xmlns="http://www.w3.org/2000/svg" xmlns:xlink="http://www.w3.org/1999/xlink" viewBox="0 0 411.133 411.523">
 <g>
  <rect height="411.523" opacity="0" width="411.133" x="0" y="0"></rect>
  <path d="M0 205.664C0 216.016 8.78906 224.609 19.1406 224.609L186.523 224.609L186.523 391.992C186.523 402.344 195.117 411.133 205.469 411.133C216.016 411.133 224.609 402.344 224.609 391.992L224.609 224.609L391.992 224.609C402.344 224.609 411.133 216.016 411.133 205.664C411.133 195.117 402.344 186.523 391.992 186.523L224.609 186.523L224.609 19.1406C224.609 8.78906 216.016 0 205.469 0C195.117 0 186.523 8.78906 186.523 19.1406L186.523 186.523L19.1406 186.523C8.78906 186.523 0 195.117 0 205.664Z" fill="white" fill-opacity="0.85"></path>
 </g>
</svg>