<?xml version="1.0" encoding="UTF-8"?>
<!--Generator: Apple Native CoreSVG 326-->
<!DOCTYPE svg
PUBLIC "-//W3C//DTD SVG 1.1//EN"
       "http://www.w3.org/Graphics/SVG/1.1/DTD/svg11.dtd">
<svg version="1.1" xmlns="http://www.w3.org/2000/svg" xmlns:xlink="http://www.w3.org/1999/xlink" viewBox="0 0 769.676 339.25">
 <g>
  <rect height="339.25" opacity="0" width="769.676" x="0" y="0"/>
  <path d="M0 169.527C0 263.355 75.8949 339.054 169.589 339.054L600.211 339.054C693.914 339.054 769.676 263.16 769.676 169.527C769.676 75.6995 693.781 0 600.211 0C506.321 0 430.56 75.6995 430.56 169.527C430.56 216.307 451.15 258.87 484.401 287.243L285.337 287.243C318.588 258.87 339.117 216.307 339.117 169.527C339.117 75.6995 263.222 0 169.589 0C75.7617 0 0 75.6995 0 169.527ZM51.7399 169.332C51.7399 104.263 104.592 51.5446 169.723 51.5446C234.72 51.5446 287.377 104.263 287.377 169.332C287.377 234.525 234.72 287.243 169.723 287.243C104.592 287.243 51.7399 234.525 51.7399 169.332ZM482.299 169.332C482.299 104.263 535.018 51.5446 600.016 51.5446C665.084 51.5446 717.936 104.263 717.936 169.332C717.936 234.525 665.084 287.243 600.016 287.243C535.018 287.243 482.299 234.525 482.299 169.332Z" fill="white" fill-opacity="0.85"/>
 </g>
</svg>
