<?xml version="1.0" encoding="UTF-8"?>


<svg version="1.1" xmlns="http://www.w3.org/2000/svg" xmlns:xlink="http://www.w3.org/1999/xlink" viewBox="0 0 508.789 509.18">
 <g>
  <rect height="509.18" opacity="0" width="508.789" x="0" y="0"></rect>
  <path d="M254.297 508.789C394.727 508.789 508.789 394.922 508.789 254.492C508.789 114.062 394.727 0 254.297 0C113.867 0 0 114.062 0 254.492C0 394.922 113.867 508.789 254.297 508.789ZM254.297 472.461C133.789 472.461 36.3281 375 36.3281 254.492C36.3281 133.984 133.789 36.5234 254.297 36.5234C374.805 36.5234 472.266 133.984 472.266 254.492C472.266 375 374.805 472.461 254.297 472.461Z" fill="white" fill-opacity="0.85"></path>
  <path d="M254.102 351.758C308.203 351.758 351.953 307.812 351.953 253.906C351.953 199.805 308.203 156.055 254.102 156.055C200.195 156.055 156.25 199.805 156.25 253.906C156.25 307.812 200.195 351.758 254.102 351.758Z" fill="white" fill-opacity="0.85"></path>
 </g>
</svg>