<?xml version="1.0" encoding="UTF-8"?>


<svg version="1.1" xmlns="http://www.w3.org/2000/svg" xmlns:xlink="http://www.w3.org/1999/xlink" viewBox="0 0 744.336 325.586">
 <g>
  <rect height="325.586" opacity="0" width="744.336" x="0" y="0"></rect>
  <path d="M0 162.695C0 252.734 72.8516 325.391 162.695 325.391L581.641 325.391C671.68 325.391 744.336 252.539 744.336 162.695C744.336 72.6562 671.484 0 581.641 0C491.602 0 418.945 72.6562 418.945 162.695C418.945 214.258 443.945 260.547 483.594 288.672L260.742 288.672C300.391 260.547 325.391 214.258 325.391 162.695C325.391 72.6562 252.539 0 162.695 0C72.6562 0 0 72.6562 0 162.695ZM36.5234 162.5C36.5234 92.7734 93.1641 36.3281 162.891 36.3281C232.422 36.3281 288.867 92.7734 288.867 162.5C288.867 232.227 232.422 288.672 162.891 288.672C93.1641 288.672 36.5234 232.227 36.5234 162.5ZM455.469 162.5C455.469 92.7734 511.914 36.3281 581.445 36.3281C651.172 36.3281 707.812 92.7734 707.812 162.5C707.812 232.227 651.172 288.672 581.445 288.672C511.914 288.672 455.469 232.227 455.469 162.5Z" fill="white" fill-opacity="0.85"></path>
 </g>
</svg>