<?xml version="1.0" encoding="UTF-8"?>


<svg version="1.1" xmlns="http://www.w3.org/2000/svg" xmlns:xlink="http://www.w3.org/1999/xlink" viewBox="0 0 490.82 490.82">
 <g>
  <rect height="490.82" opacity="0" width="490.82" x="0" y="0"></rect>
  <path d="M245.508 490.43C254.492 490.43 261.328 484.18 262.695 474.805C283.594 301.758 305.078 279.883 474.609 262.5C483.984 261.523 490.82 254.297 490.82 245.312C490.82 236.133 483.984 228.906 474.609 228.125C305.078 210.547 283.594 188.867 262.695 15.8203C261.328 6.25 254.492 0 245.508 0C236.719 0 229.688 6.25 228.125 15.8203C207.422 188.867 185.742 210.547 16.4062 228.125C6.83594 228.906 0 236.133 0 245.312C0 254.297 6.83594 261.328 16.4062 262.5C185.352 284.18 205.859 301.562 228.125 474.805C229.688 484.18 236.719 490.43 245.508 490.43Z" fill="white" fill-opacity="0.85"></path>
 </g>
</svg>