<?xml version="1.0" encoding="UTF-8"?>


<svg version="1.1" xmlns="http://www.w3.org/2000/svg" xmlns:xlink="http://www.w3.org/1999/xlink" viewBox="0 0 462.695 620.117">
 <g>
  <rect height="620.117" opacity="0" width="462.695" x="0" y="0"></rect>
  <path d="M217.383 121.484C220.508 121.484 222.07 119.531 222.656 116.602C229.492 76.5625 228.906 73.2422 273.438 65.8203C276.367 65.4297 278.125 63.6719 278.125 60.7422C278.125 57.8125 276.367 55.8594 273.438 55.4688C228.906 48.0469 229.492 44.7266 222.656 4.6875C222.07 1.75781 220.508 0 217.383 0C214.258 0 212.695 1.75781 212.109 4.6875C205.273 44.7266 205.859 48.0469 161.328 55.4688C158.398 55.8594 156.641 57.8125 156.641 60.7422C156.641 63.6719 158.398 65.4297 161.328 65.8203C205.859 73.2422 205.273 76.5625 212.109 116.602C212.695 119.531 214.258 121.484 217.383 121.484Z" fill="white" fill-opacity="0.85"></path>
  <path d="M94.5312 293.555C98.4375 293.555 101.367 290.82 101.953 286.914C111.328 219.336 112.891 219.922 182.422 206.641C186.133 205.859 189.062 203.32 189.062 199.219C189.062 195.117 186.133 192.383 182.422 191.797C112.891 181.25 111.133 179.883 101.953 111.719C101.367 107.617 98.4375 104.883 94.5312 104.883C90.625 104.883 87.6953 107.617 87.1094 111.914C78.3203 179.297 75.7812 178.516 6.64062 191.797C2.92969 192.578 0 195.117 0 199.219C0 203.516 2.92969 205.859 7.42188 206.641C76.1719 218.164 78.3203 219.141 87.1094 286.523C87.6953 290.82 90.625 293.555 94.5312 293.555Z" fill="white" fill-opacity="0.85"></path>
  <path d="M265.43 573.633C271.484 573.633 275.977 569.531 276.758 563.281C293.945 421.289 312.305 402.539 451.953 387.891C458.398 387.305 462.695 382.812 462.695 376.758C462.695 370.703 458.398 366.016 451.953 365.43C312.305 350.781 293.945 332.031 276.758 190.039C275.977 183.984 271.484 179.688 265.43 179.688C259.375 179.688 255.078 183.984 254.102 190.039C236.914 332.031 218.555 350.781 78.9062 365.43C72.4609 366.016 68.1641 370.703 68.1641 376.758C68.1641 382.812 72.4609 387.305 78.9062 387.891C218.164 405.859 235.742 421.484 254.102 563.281C255.078 569.531 259.375 573.633 265.43 573.633Z" fill="white" fill-opacity="0.85"></path>
 </g>
</svg>