<?xml version="1.0" encoding="UTF-8"?>


<svg version="1.1" xmlns="http://www.w3.org/2000/svg" xmlns:xlink="http://www.w3.org/1999/xlink" viewBox="0 0 441.797 665.039">
 <g>
  <rect height="665.039" opacity="0" width="441.797" x="0" y="0"></rect>
  <path d="M441.797 273.242L441.797 523.633C441.797 573.242 416.406 598.828 365.82 598.828L75.9766 598.828C25.5859 598.828 0 573.633 0 523.633L0 273.242C0 223.242 25.5859 197.852 75.9766 197.852L159.766 197.852L159.766 232.617L76.7578 232.617C49.4141 232.617 34.5703 247.07 34.5703 275L34.5703 521.68C34.5703 549.805 49.4141 564.258 76.7578 564.258L365.039 564.258C391.797 564.258 407.227 549.805 407.227 521.68L407.227 275C407.227 247.07 391.797 232.617 365.039 232.617L282.031 232.617L282.031 197.852L365.82 197.852C416.406 197.852 441.797 223.438 441.797 273.242Z" fill="white" fill-opacity="0.85"></path>
  <path d="M220.898 403.711C230.078 403.711 238.086 396.094 238.086 386.914L238.086 125L236.719 88.0859L252.148 104.102L294.531 148.633C297.656 152.148 302.148 153.906 306.25 153.906C315.234 153.906 322.07 147.461 322.07 138.672C322.07 134.18 320.117 130.664 316.992 127.344L233.398 46.0938C229.102 41.7969 225.195 40.4297 220.898 40.4297C216.602 40.4297 212.695 41.7969 208.398 46.0938L124.805 127.344C121.484 130.664 119.727 134.18 119.727 138.672C119.727 147.461 126.172 153.906 135.156 153.906C139.258 153.906 143.945 152.148 147.07 148.633L189.648 104.102L205.078 87.8906L203.711 125L203.711 386.914C203.711 396.094 211.719 403.711 220.898 403.711Z" fill="white" fill-opacity="0.85"></path>
 </g>
</svg>