<?xml version="1.0" encoding="UTF-8"?>
<!--Generator: Apple Native CoreSVG 326-->
<!DOCTYPE svg
PUBLIC "-//W3C//DTD SVG 1.1//EN"
       "http://www.w3.org/Graphics/SVG/1.1/DTD/svg11.dtd">
<svg version="1.1" xmlns="http://www.w3.org/2000/svg" xmlns:xlink="http://www.w3.org/1999/xlink" viewBox="0 0 459.18 459.18">
 <g>
  <rect height="459.18" opacity="0" width="459.18" x="0" y="0"/>
  <path d="M295.898 459.18L414.258 459.18C443.945 459.18 459.18 444.531 459.18 413.477L459.18 296.68C459.18 265.625 443.945 250.977 414.258 250.977L295.898 250.977C266.016 250.977 250.977 265.625 250.977 296.68L250.977 413.477C250.977 444.531 266.016 459.18 295.898 459.18ZM296.484 428.516C286.133 428.516 281.641 423.828 281.641 413.477L281.641 296.875C281.641 286.523 286.133 281.641 296.484 281.641L413.867 281.641C423.828 281.641 428.516 286.523 428.516 296.875L428.516 413.477C428.516 423.828 423.828 428.516 413.867 428.516Z" fill="white" fill-opacity="0.85"/>
  <path d="M44.9219 459.18L163.281 459.18C192.969 459.18 208.203 444.531 208.203 413.477L208.203 296.68C208.203 265.625 192.969 250.977 163.281 250.977L44.9219 250.977C15.2344 250.977 0 265.625 0 296.68L0 413.477C0 444.531 15.2344 459.18 44.9219 459.18ZM45.3125 428.516C35.3516 428.516 30.6641 423.828 30.6641 413.477L30.6641 296.875C30.6641 286.523 35.3516 281.641 45.3125 281.641L162.695 281.641C172.656 281.641 177.539 286.523 177.539 296.875L177.539 413.477C177.539 423.828 172.656 428.516 162.695 428.516Z" fill="white" fill-opacity="0.85"/>
  <path d="M295.898 208.203L414.258 208.203C443.945 208.203 459.18 193.75 459.18 162.5L459.18 45.7031C459.18 14.6484 443.945 0 414.258 0L295.898 0C266.016 0 250.977 14.6484 250.977 45.7031L250.977 162.5C250.977 193.75 266.016 208.203 295.898 208.203ZM296.484 177.539C286.133 177.539 281.641 172.852 281.641 162.305L281.641 45.7031C281.641 35.5469 286.133 30.6641 296.484 30.6641L413.867 30.6641C423.828 30.6641 428.516 35.5469 428.516 45.7031L428.516 162.305C428.516 172.852 423.828 177.539 413.867 177.539Z" fill="white" fill-opacity="0.85"/>
  <path d="M44.9219 208.203L163.281 208.203C192.969 208.203 208.203 193.75 208.203 162.5L208.203 45.7031C208.203 14.6484 192.969 0 163.281 0L44.9219 0C15.2344 0 0 14.6484 0 45.7031L0 162.5C0 193.75 15.2344 208.203 44.9219 208.203ZM45.3125 177.539C35.3516 177.539 30.6641 172.852 30.6641 162.305L30.6641 45.7031C30.6641 35.5469 35.3516 30.6641 45.3125 30.6641L162.695 30.6641C172.656 30.6641 177.539 35.5469 177.539 45.7031L177.539 162.305C177.539 172.852 172.656 177.539 162.695 177.539Z" fill="white" fill-opacity="0.85"/>
 </g>
</svg>
