<?xml version="1.0" encoding="UTF-8"?>


<svg version="1.1" xmlns="http://www.w3.org/2000/svg" xmlns:xlink="http://www.w3.org/1999/xlink" viewBox="0 0 419.336 538.477">
 <g>
  <rect height="538.477" opacity="0" width="419.336" x="0" y="0"></rect>
  <path d="M142.188 155.469C134.18 155.469 127.344 148.828 127.344 140.82C127.344 132.422 134.18 125.781 142.188 125.781L342.578 125.781C350.781 125.781 357.617 132.422 357.617 140.82C357.617 148.828 350.781 155.469 342.578 155.469ZM142.188 225.586C134.18 225.586 127.344 218.945 127.344 210.547C127.344 202.539 134.18 195.898 142.188 195.898L290.625 195.898C299.023 195.898 305.664 202.539 305.664 210.547C305.664 218.945 299.023 225.586 290.625 225.586ZM74.0234 538.477L402.148 538.477C411.719 538.477 419.336 530.859 419.336 521.094C419.336 513.867 414.258 507.227 407.617 504.688C374.414 489.453 367.188 447.656 399.023 414.648C408.789 404.688 419.336 391.406 419.336 366.992L419.336 76.3672C419.336 25.9766 394.141 0.390625 344.141 0.390625L75.1953 0.390625C25.1953 0.390625 0 25.7812 0 76.3672L0 464.648C0 513.281 25.3906 538.477 74.0234 538.477ZM75.7812 503.906C49.2188 503.906 34.5703 489.453 34.5703 464.258C34.5703 440.43 51.1719 425.391 77.5391 425.391L339.844 425.391C344.727 425.391 348.828 424.805 352.734 423.828C338.867 451.953 341.797 481.641 358.984 503.906ZM67.5781 389.648C60.7422 389.648 54.8828 383.984 54.8828 376.953L54.8828 49.8047C54.8828 42.5781 60.7422 36.9141 67.5781 36.9141C74.6094 36.9141 80.4688 42.5781 80.4688 49.8047L80.4688 376.953C80.4688 383.984 74.6094 389.648 67.5781 389.648Z" fill="white" fill-opacity="0.85"></path>
 </g>
</svg>