<?xml version="1.0" encoding="UTF-8"?>


<svg version="1.1" xmlns="http://www.w3.org/2000/svg" xmlns:xlink="http://www.w3.org/1999/xlink" viewBox="0 0 512.305 531.055">
 <g>
  <rect height="531.055" opacity="0" width="512.305" x="0" y="0"></rect>
  <path d="M349.609 186.328C352.93 186.328 355.469 183.984 356.25 180.664C367.383 120.898 376.172 108.789 436.719 99.8047C440.234 99.2188 442.383 96.6797 442.383 93.3594C442.383 89.6484 440.234 87.1094 436.719 86.5234C376.172 77.5391 365.43 64.4531 356.25 6.25C355.469 2.34375 352.93 0 349.609 0C345.898 0 343.359 2.34375 342.773 6.05469C331.445 65.2344 322.461 77.5391 262.305 86.5234C258.398 87.1094 256.25 89.6484 256.25 93.3594C256.25 96.6797 258.398 99.0234 262.305 99.8047C322.461 108.789 333.203 120.703 342.773 180.469C343.164 183.984 345.508 186.328 349.609 186.328ZM68.75 388.281C72.2656 388.281 74.2188 386.133 74.8047 382.812C81.6406 337.305 81.6406 332.812 132.031 325.586C135.547 325 137.695 322.852 137.695 319.531C137.695 316.211 135.547 314.062 132.031 313.477C81.6406 306.055 81.6406 301.758 74.8047 256.25C74.2188 252.93 72.2656 250.586 68.75 250.586C65.4297 250.586 63.2812 252.93 62.6953 256.25C55.8594 301.758 55.8594 306.055 5.46875 313.477C2.14844 314.062 0 316.211 0 319.531C0 322.852 2.14844 325 5.46875 325.586C55.8594 332.812 55.8594 337.305 62.6953 382.812C63.2812 386.133 65.4297 388.281 68.75 388.281ZM153.125 461.719C155.664 461.719 157.617 459.766 158.008 457.227C162.5 429.688 161.719 427.148 194.336 421.094C197.07 420.508 198.633 418.555 198.633 416.016C198.633 413.477 197.07 411.719 194.336 411.133C161.914 405.078 162.891 402.734 158.008 374.805C157.617 372.266 155.469 370.508 153.125 370.508C150.586 370.508 148.828 372.266 148.242 375.195C142.773 402.734 144.336 405.664 112.109 411.133C109.375 411.719 107.617 413.281 107.617 416.016C107.617 418.555 109.375 420.508 111.914 421.094C144.336 427.148 142.773 429.688 148.242 457.227C148.828 459.766 150.586 461.719 153.125 461.719Z" fill="white" fill-opacity="0.85"></path>
  <path d="M441.211 483.398C451.367 493.945 467.578 493.555 476.953 483.398C486.719 473.438 486.914 458.398 476.758 447.852L152.148 123.438C142.188 113.281 125.781 113.477 116.406 123.438C106.641 133.594 106.641 148.828 116.602 158.984ZM216.406 234.961L131.445 149.805C128.32 146.484 128.32 141.797 131.445 138.477C134.57 135.352 139.648 135.156 142.969 138.477L227.93 223.633Z" fill="white" fill-opacity="0.85"></path>
 </g>
</svg>