<?xml version="1.0" encoding="UTF-8"?><svg id="Layer_1" xmlns="http://www.w3.org/2000/svg" viewBox="0 0 546.83 607.52"><defs><style>.genie-fill{fill:rgb(127,98,196);}</style></defs><path class="genie-fill" d="M197.04,440.62c-.02-.07-.04-.14-.06-.22-2.8-.11-2.13.02.06.22Z"/><path class="genie-fill" d="M211.33,440.41c-.06.31-.08.62-.08.93.11,0,.21,0,.31,0-.08-.31-.16-.61-.23-.92Z"/><path class="genie-fill" d="M243.7,0c-41.61,0-75.34,24.54-75.34,43.95,0,11.2,3.89,21.17,19.41,27.6,5.11-6.07,25.01-27.11,55.93-27.11,30.94,0,50.83,21.06,55.92,27.11,15.53-6.44,19.42-16.41,19.42-27.61,0-19.41-33.73-43.95-75.34-43.95ZM243.7,60.95c-26.96,0-44.29,22.42-44.29,22.42-3.17,5.33-4.82,11.17-4.84,17.08,0,21.94,22,39.73,49.14,39.73,27.14,0,49.14-17.79,49.13-39.73-.03-5.92-1.69-11.76-4.87-17.1,0,0-17.3-22.4-44.26-22.4ZM243.7,152.33c-108.32,0-196.14,39.05-196.14,87.23,0,28.44,30.72,39.86,78.09,44.47,69.5,4.49,97.38-25.5,151.2-53.18,0,0-16.01-4.4-55.93-4.4s-55.93,4.4-55.93,4.4c0,0,24.84-16.5,83.15-16.5s83.15,16.47,83.15,16.47c-14.76,1.28-29.31,6.08-43.04,12.61-9.92,4.72-19.49,10.36-29.05,16.3,30.9,19.62,73.44,25.9,102.55,24.3,47.38-4.61,78.09-16.03,78.09-44.47,0-48.17-87.81-87.23-196.14-87.23ZM242.1,270.8c-36.98,19.74-74.89,34.35-116.28,29.84,2.38,13.99,6.42,27.7,12.02,40.74,10.81,25.15,27.31,47.41,47.49,65.85,19.45,3.07,48.18,3.39,87.45-7.13,40.57-10.87,65.65-26.15,80.82-38.78-2.59-6.33-4.48-12.91-5.4-19.71-1.27-9.32-.69-18.94,2.19-27.89,1.48-4.61,3.59-9.03,6.27-13.07-42.67,3.87-80.79-6.3-114.56-29.84h0ZM370.76,389.86c-19.01,14.87-47.65,30.91-89.43,42.11-17.29,4.63-33.03,7.4-47.25,8.84,11.9,6.03,24.34,11,37.08,14.79,20.79,6.18,42.44,9.51,62.71,17.24,10.13,3.87,19.91,8.85,28.45,15.55,8.53,6.69,15.8,15.16,20.32,25.02,6.1,13.32,6.87,29,2.09,42.86-4.78,13.85-15.04,25.73-28.06,32.46-13.02,6.73-28.64,8.24-42.71,4.13-3.44-1.01-6.78-2.36-9.96-4-1.32-.63-2.11.16-.69,1.15,9.61,6.89,20.49,12.01,31.98,14.85,22.24,5.48,46.49,2.41,66.66-8.45,20.17-10.86,36.07-29.41,43.74-51,7.67-21.59,7.02-46.02-1.79-67.16-7.23-17.37-19.52-32.13-32.59-45.66-13.07-13.52-27.15-26.14-39-40.74-.53-.65-1.02-1.33-1.54-1.99Z"/><path class="genie-fill" d="M24.08,352.73l-.44,48.25c-15.51-3.25-28.66,12.03-21.76,26.79,7.72,16.52,32.82,12.82,35.75-5.13l.58-58.85,42.58-11.02-.36,39.26c-15.85-3.27-29,12.53-21.42,27.39,7.98,15.65,31.63,12.1,35.28-4.91l.84-80.06h-.47s-70.58,18.28-70.58,18.28Z"/><path class="genie-fill" d="M476.04,75.85v-1.17l-4.96-15.77-31.89,8.74v48.02c-21.38-4.64-38.17,19.63-24.23,37.43,13.09,16.7,39.3,8.66,41.77-11.96l-.02-59.63,19.33-5.66Z"/><path class="genie-fill" d="M546.83,160.84l-5.12-20.79-42.24,10.56v62.69c-31.23-8.23-52.04,32.52-26.01,52.85,18.99,14.84,46.46,2.22,48.64-21.52l-.02-76.16,24.76-7.64Z"/></svg>