<?xml version="1.0" encoding="UTF-8"?>
<svg id="Layer_1" xmlns="http://www.w3.org/2000/svg" xmlns:xlink="http://www.w3.org/1999/xlink" version="1.1" viewBox="0 0 240 240">
  
  <defs>
    
    <linearGradient id="linear-gradient" x1="91.8" y1="139.1" x2="91.8" y2="17.6" gradientUnits="userSpaceOnUse">
      <stop offset=".4" stop-color="#9b5bf6"></stop>
      <stop offset="1" stop-color="#564fb6"></stop>
    </linearGradient>
    <linearGradient id="linear-gradient1" x1="91.8" y1="-14.7" x2="91.8" y2="220.2" gradientUnits="userSpaceOnUse">
      <stop offset="0" stop-color="#9b5bf6"></stop>
      <stop offset="1" stop-color="#564fb6"></stop>
    </linearGradient>
    <linearGradient id="linear-gradient2" x1="119.9" y1="-14.7" x2="119.9" y2="220.2" xlink:href="#linear-gradient1"></linearGradient>
  </defs>
  <path class="st3" d="M98.6,46.5v-11.7h-14.1v11.5c-3,1.5-6.2,2.3-9.1,4.1-7.8,4.7-13.1,13.4-14.4,22.4h61.4c-1.8-12.9-11.1-23.4-23.9-26.2Z"></path>
  <path class="st1" d="M122.3,203c-.2-.4-5.7-4-6.8-4.9-7.5-6.5-12.2-15.2-14.5-24.9-6.1-.2-12.1-.2-18-1.6-2,10.2-6.9,19.7-14.8,26.5-1.1,1-6.6,4.6-6.8,4.9-.5.9-.1,2.3-.2,3.3h61.4c0-1,.3-2.4-.2-3.3Z"></path>
  <path class="st0" d="M4.2,125c10.3,15.8,30.1,9.8,46.1,11.1,13.1,16,32.7,24.3,53.5,22.9,25.6-1.7,47.5-25,68.9-37.4,20.2-11.7,43.7-17.3,67.1-16v-18.7H24.6c-19.5.7-31.4,21.3-20.4,38.2ZM36.6,101.1c.7,7.2,2.2,14.2,5.1,20.8-5.7-.5-12.5.7-18,0-12.5-1.6-13.6-19.9,1.9-21.1,1.4-.1,10.8-.2,11,.3Z"></path>
  <path class="st2" d="M240,96.4c-23.4-1.3-51.2,4.4-71.4,16-21.5,12.4-43.3,35.7-68.9,37.4-20.8,1.4-40.4-3.8-53.5-19.9-24.5,2.6-35.5,1.6-45.9-13.9.6,3,1.8,6,3.7,8.9,10.3,15.8,30.1,9.8,46.1,11.1,13.1,16,32.7,24.3,53.5,22.9,25.6-1.7,47.5-25,68.9-37.4,20.2-11.7,43.7-17.3,67.1-16l.4-9.2"></path>
  <path class="st2" d="M122.3,203.1c0,0,0,0,0-.1-.2-.4-5.7-4-6.8-4.9-6.8-5.9-11.3-13.7-13.8-22.3-.5-.7-.7-1.3-.7-2-2.1,0-2.9-.2-5-.4,2.3,9.6,3.4,18.3,10.8,24.7,1.1,1,6.6,4.6,6.8,4.9.5.9.1,2.3.2,3.3h8.7c0-1,.2-2.3-.2-3.2Z"></path>
</svg>